<svg xmlns="http://www.w3.org/2000/svg" viewBox="0 0 50 50"><path d="M 23.001953 5.3652344 L 22.5 5.6542969 L 2.5 17.203125 L 2 17.492188 L 2 18.070312 L 2 28.460938 L 2 29.037109 L 2.5 29.326172 L 12.5 35.105469 L 13.001953 35.396484 L 13.501953 35.105469 L 15.423828 33.992188 L 16.023438 36.763672 L 16.117188 37.195312 L 16.501953 37.417969 L 26.501953 43.1875 L 27 43.474609 L 27.498047 43.1875 L 29.498047 42.037109 L 30 41.748047 L 30 41.169922 L 30 33.65625 L 42.005859 26.728516 L 42.498047 27.013672 L 44.498047 28.173828 L 45 28.466797 L 45.501953 28.175781 L 47.501953 27.015625 L 48 26.726562 L 48 26.150391 L 48 20.380859 L 48 19.800781 L 47.498047 19.513672 L 45.498047 18.363281 L 44.998047 18.076172 L 44.5 18.363281 L 27 28.464844 L 11 19.230469 L 20.005859 14.029297 L 20.498047 14.314453 L 22.498047 15.474609 L 23 15.765625 L 23.501953 15.474609 L 25.501953 14.314453 L 26 14.025391 L 26 13.449219 L 26 7.6796875 L 26 7.1035156 L 25.501953 6.8144531 L 23.501953 5.6542969 L 23.001953 5.3652344 z M 23 6.8085938 L 24.5 7.6796875 L 6.875 17.855469 A 0.250025 0.250025 0 0 0 6.875 18.289062 L 8.8535156 19.433594 A 0.250025 0.250025 0 0 0 8.875 19.447266 L 26.875 29.835938 A 0.250025 0.250025 0 0 0 27.125 29.835938 L 45 19.517578 L 46.5 20.380859 L 27 31.638672 L 3.5 18.070312 L 23 6.8085938 z M 24.75 8.1132812 L 24.75 13.306641 L 23.25 14.175781 L 23.25 11.144531 A 0.250025 0.250025 0 0 0 22.992188 10.894531 A 0.250025 0.250025 0 0 0 22.875 10.927734 L 20.896484 12.072266 L 20.875 12.083984 L 9 18.941406 L 7.5 18.072266 L 24.75 8.1132812 z M 22.75 11.578125 L 22.75 14.175781 L 21.25 13.306641 L 21.25 12.443359 L 22.75 11.578125 z M 3.25 18.503906 L 26.75 32.072266 L 26.75 41.886719 L 17.220703 36.388672 L 15.955078 30.537109 L 15.949219 30.513672 L 15.244141 27.255859 A 0.250025 0.250025 0 0 0 14.990234 27.058594 A 0.250025 0.250025 0 0 0 14.759766 27.240234 L 12.849609 33.863281 L 3.25 28.316406 L 3.25 18.503906 z M 46.75 20.8125 L 46.75 26.005859 L 45.25 26.876953 L 45.25 23.845703 A 0.250025 0.250025 0 0 0 44.992188 23.595703 A 0.250025 0.250025 0 0 0 44.875 23.628906 L 42.896484 24.771484 L 42.875 24.783203 L 28.875 32.863281 A 0.250025 0.250025 0 0 0 28.75 33.080078 L 28.75 41.025391 L 27.25 41.886719 L 27.25 32.072266 L 46.75 20.8125 z M 4.9804688 21.285156 A 0.250025 0.250025 0 0 0 4.75 21.535156 L 4.75 27.308594 A 0.250025 0.250025 0 0 0 4.875 27.525391 L 11.126953 31.134766 A 0.250025 0.250025 0 0 0 11.490234 30.988281 L 12.919922 26.039062 A 0.250025 0.250025 0 0 0 12.804688 25.751953 L 5.125 21.320312 A 0.250025 0.250025 0 0 0 5.0058594 21.285156 A 0.250025 0.250025 0 0 0 4.9804688 21.285156 z M 5.25 21.96875 L 6.75 22.833984 L 6.75 26.009766 L 5.25 26.875 L 5.25 21.96875 z M 7.25 23.123047 L 12.384766 26.087891 L 11.669922 28.5625 L 7.25 26.009766 L 7.25 23.123047 z M 44.75 24.277344 L 44.75 26.876953 L 43.25 26.005859 L 43.25 25.144531 L 44.75 24.277344 z M 7 26.443359 L 11.527344 29.058594 L 11.099609 30.541016 L 5.5 27.308594 L 7 26.443359 z M 14.964844 28.332031 L 15.451172 30.582031 L 14.787109 32.914062 L 13.412109 33.710938 L 14.964844 28.332031 z M 17.527344 28.529297 A 0.250025 0.250025 0 0 0 17.302734 28.833984 L 18.755859 35.445312 A 0.250025 0.250025 0 0 0 18.875 35.609375 L 24.875 39.072266 A 0.250025 0.250025 0 0 0 25.25 38.855469 L 25.25 33.082031 A 0.250025 0.250025 0 0 0 25.125 32.867188 L 17.671875 28.564453 A 0.250025 0.250025 0 0 0 17.552734 28.529297 A 0.250025 0.250025 0 0 0 17.527344 28.529297 z M 17.912109 29.279297 L 19.912109 30.433594 L 20.716797 34.113281 L 19.171875 35.005859 L 17.912109 29.279297 z M 20.498047 30.771484 L 24.75 33.226562 L 24.75 36.113281 L 21.220703 34.076172 L 20.498047 30.771484 z M 21 34.527344 L 24.75 36.691406 L 24.75 38.421875 L 19.501953 35.392578 L 21 34.527344 z"/></svg>