<svg xmlns="http://www.w3.org/2000/svg" baseProfile="basic" viewBox="0 0 50 50"><polygon fill="#a8a8a8" points="47,20.38 47,26.15 45,27.31 43,26.15 43,25 29,33.08 29,41.17 27,42.32 17,36.55 15.71,30.59 15,33.08 13,34.24 3,28.46 3,18.07 23,6.52 25,7.68 25,13.45 23,14.61 21,13.45 21,12.3 9,19.23 27,29.62 45,19.23"/><polygon fill="#737373" points="13,34.238 15,33.083 15.71,30.587 15,27.309"/><path fill="#ccc" d="M27,31.928L3,18.072l0,10.392l10,5.773l2-6.928l2,9.238l10,5.774V31.928z M11.251,30.918L5,27.309	v-5.773l7.679,4.434L11.251,30.918z M25,38.856l-6-3.464l-1.453-6.613L25,33.083V38.856z"/><polygon fill="#577be6" points="5,27.309 7,26.155 7,22.691 5,21.536"/><polygon fill="#5c82f2" points="5,27.309 7,26.155 11.822,28.939 11.251,30.918"/><polygon fill="#6189ff" points="7,22.691 7,26.155 11.822,28.939 12.679,25.969"/><polygon fill="#d94a4a" points="19,35.392 21,34.238 20.133,30.273 17.547,28.78"/><polygon fill="#e64e4e" points="19,35.392 21,34.238 25,36.547 25,38.856"/><polygon fill="#ff5757" points="20.133,30.273 21,34.238 25,36.547 25,33.083"/><polygon fill="#737373" points="25,13.453 25,7.679 7,18.072 9,19.226 23,11.144 23,14.608"/><polygon fill="#737373" points="47,20.381 27,31.928 27,42.321 29,41.166 29,33.083 45,23.845 45,27.309 47,26.155"/></svg>